<svg width="48" height="48" viewBox="0 0 48 48" fill="none" xmlns="http://www.w3.org/2000/svg">
<path fill-rule="evenodd" clip-rule="evenodd" d="M34.182 16.4219C34.0134 12.7206 30.8839 9.85226 27.182 10.0059C24.4941 9.95603 22.0117 11.4392 20.782 13.8299C20.1829 13.6143 19.5508 13.5047 18.914 13.5059C16.2196 13.3907 13.9401 15.4778 13.818 18.1719C13.818 18.2212 13.818 18.2699 13.818 18.3179C11.6495 18.7554 10.0678 20.6287 10 22.8399C10.1222 25.5316 12.3979 27.6177 15.09 27.5059H32.908C35.6009 27.6189 37.8779 25.5324 38 22.8399C37.9175 20.5203 36.1871 18.5921 33.89 18.2599C34.0836 17.6664 34.1821 17.0461 34.182 16.4219Z" stroke="#A0A3BD" stroke-linecap="round" stroke-linejoin="round"/>
<path d="M17.4851 31.1271C17.552 30.8592 17.3892 30.5878 17.1213 30.5208C16.8534 30.4538 16.5819 30.6167 16.5149 30.8846L17 31.0059L17.4851 31.1271ZM14.7649 37.8846C14.698 38.1525 14.8608 38.424 15.1287 38.4909C15.3966 38.5579 15.6681 38.395 15.7351 38.1271L15.25 38.0059L14.7649 37.8846ZM22.7243 31.164C22.8117 30.902 22.6701 30.6188 22.4081 30.5315C22.1461 30.4442 21.863 30.5858 21.7757 30.8477L22.25 31.0059L22.7243 31.164ZM20.0257 36.0977C19.9383 36.3597 20.0799 36.6429 20.3419 36.7302C20.6039 36.8175 20.887 36.6759 20.9743 36.414L20.5 36.2559L20.0257 36.0977ZM27.9851 31.1271C28.052 30.8592 27.8892 30.5878 27.6213 30.5208C27.3534 30.4538 27.0819 30.6167 27.0149 30.8846L27.5 31.0059L27.9851 31.1271ZM25.2649 37.8846C25.198 38.1525 25.3608 38.424 25.6287 38.4909C25.8966 38.5579 26.1681 38.395 26.2351 38.1271L25.75 38.0059L25.2649 37.8846ZM33.2243 31.164C33.3117 30.902 33.1701 30.6188 32.9081 30.5315C32.6461 30.4442 32.363 30.5858 32.2757 30.8477L32.75 31.0059L33.2243 31.164ZM30.5257 36.0977C30.4383 36.3597 30.5799 36.6429 30.8419 36.7302C31.1039 36.8175 31.387 36.6759 31.4743 36.414L31 36.2559L30.5257 36.0977ZM17 31.0059L16.5149 30.8846L14.7649 37.8846L15.25 38.0059L15.7351 38.1271L17.4851 31.1271L17 31.0059ZM22.25 31.0059L21.7757 30.8477L20.0257 36.0977L20.5 36.2559L20.9743 36.414L22.7243 31.164L22.25 31.0059ZM27.5 31.0059L27.0149 30.8846L25.2649 37.8846L25.75 38.0059L26.2351 38.1271L27.9851 31.1271L27.5 31.0059ZM32.75 31.0059L32.2757 30.8477L30.5257 36.0977L31 36.2559L31.4743 36.414L33.2243 31.164L32.75 31.0059Z" fill="#A0A3BD"/>
</svg>
