<svg width="124" height="32" viewBox="0 0 124 32" fill="none" xmlns="http://www.w3.org/2000/svg">
<g clip-path="url(#clip0_995_60)">
<path d="M14.8134 3.06612C14.8134 4.75949 13.44 6.13223 11.7459 6.13223C10.0517 6.13223 8.67834 4.75949 8.67834 3.06612C8.67834 1.37275 10.0517 0 11.7459 0C13.44 0 14.8134 1.37275 14.8134 3.06612Z" fill="url(#paint0_linear_995_60)"/>
<path d="M13.9154 26.7603C12.7182 25.5636 10.7752 25.5636 9.57793 26.7603C8.38069 27.957 6.43765 27.957 5.24041 26.7603H5.23875C4.04317 25.5653 4.04317 23.6248 5.24041 22.4281H5.23875C5.23875 22.4281 5.23876 22.4248 5.24041 22.4231C6.43765 21.2265 6.43765 19.2843 5.24041 18.0876C4.04317 16.8909 4.04317 14.9488 5.24041 13.7521L5.23545 13.7471C6.43269 12.5504 6.43269 10.6083 5.23545 9.41157C4.03821 8.21488 2.09517 8.21488 0.89793 9.41157C-0.29931 10.6083 -0.29931 12.5504 0.89793 13.7471C2.09517 14.9438 2.09517 16.886 0.89793 18.0827H0.899584C0.899584 18.0827 0.899584 18.086 0.89793 18.0876C-0.29931 19.2843 -0.29931 21.2265 0.89793 22.4231C2.09517 23.6198 2.09517 25.562 0.89793 26.7587H0.899584C0.899584 26.7587 0.899584 26.762 0.89793 26.7636C-0.29931 27.9603 -0.29931 29.9025 0.89793 31.0992C1.49655 31.6975 2.28369 31.9967 3.06917 31.9967C3.85465 31.9967 4.64013 31.6975 5.24041 31.0992C5.24372 31.0959 5.24661 31.0922 5.2495 31.0884C5.2512 31.0863 5.2529 31.0841 5.25468 31.082C5.25594 31.0805 5.25723 31.0791 5.2586 31.0777C6.45749 29.9025 8.38234 29.9091 9.57296 31.0992L9.57793 31.0942C10.7752 32.2909 12.7182 32.2909 13.9154 31.0942C15.1127 29.8975 15.1127 27.9554 13.9154 26.7587V26.7603Z" fill="url(#paint1_linear_995_60)"/>
<path d="M22.5954 18.0892C21.3982 16.8926 21.3982 14.9504 22.5954 13.7537H22.5938V13.7504C23.791 12.5537 23.791 10.6116 22.5938 9.41486C22.2184 9.03965 21.7703 8.7818 21.294 8.64296C20.2506 8.33387 19.0748 8.59172 18.2513 9.41486C18.2496 9.4166 18.2479 9.4184 18.2463 9.42025C18.2448 9.42187 18.2434 9.42352 18.242 9.42519C18.2373 9.43068 18.2325 9.4363 18.2265 9.44131C17.026 10.6116 15.1061 10.6033 13.9171 9.41651L13.9121 9.42147C12.7149 8.22478 10.7719 8.22478 9.57462 9.42147C8.37738 10.6182 8.37738 12.5603 9.57462 13.757C10.7719 14.9537 12.7149 14.9537 13.9121 13.757C15.1094 12.5603 17.0524 12.5603 18.2497 13.757L18.253 13.7537C19.4485 14.9521 19.4469 16.8909 18.2497 18.0859H18.2513C18.2513 18.0859 18.2513 18.0892 18.2497 18.0909C17.0524 19.2876 17.0524 21.2297 18.2497 22.4264C19.4469 23.6231 19.4469 25.5653 18.2497 26.762L18.2546 26.7669C17.0574 27.9636 17.0574 29.9058 18.2546 31.1025C19.4519 32.2992 21.3949 32.2992 22.5921 31.1025C23.7894 29.9058 23.7894 27.9636 22.5921 26.7669C21.3949 25.5702 21.3949 23.6281 22.5921 22.4314H22.5905C22.5905 22.4314 22.5905 22.4281 22.5921 22.4264C23.7894 21.2297 23.7894 19.2876 22.5921 18.0909L22.5954 18.0892Z" fill="url(#paint2_linear_995_60)"/>
<path d="M30.9283 20.8694C31.4618 21.1851 32.049 21.4174 32.6898 21.5665C33.3306 21.7155 33.9861 21.7892 34.6578 21.7892C35.1116 21.7892 35.4889 21.7588 35.7914 21.6979C36.0939 21.6354 36.3363 21.5569 36.5185 21.4607C36.7006 21.3646 36.8307 21.254 36.9055 21.1322C36.982 21.0088 37.0194 20.8838 37.0194 20.7572C37.0194 20.5729 36.9381 20.4159 36.7754 20.2845C36.6128 20.1531 36.3444 20.0874 35.972 20.0874C35.7996 20.0874 35.6109 20.0986 35.4125 20.121C35.2124 20.1434 35.0026 20.1659 34.7814 20.1899C34.5602 20.214 34.3325 20.2364 34.0934 20.2588C33.8543 20.2813 33.6136 20.2925 33.3696 20.2925C32.8362 20.2925 32.3807 20.2348 32.005 20.121C31.6293 20.0072 31.3236 19.8518 31.0877 19.6547C30.8519 19.4576 30.6811 19.2236 30.5738 18.9544C30.4664 18.6851 30.4144 18.3951 30.4144 18.0842C30.4144 17.69 30.5071 17.3262 30.6941 16.9929C30.8812 16.6596 31.1479 16.3711 31.4943 16.1291C31.8424 15.8855 32.2604 15.6964 32.7516 15.5602C33.2428 15.424 33.7909 15.3567 34.3959 15.3567C34.7115 15.3567 35.0416 15.3759 35.3864 15.4128C35.7312 15.4497 36.0696 15.4993 36.403 15.5602C36.7364 15.6227 37.0568 15.6932 37.3642 15.7734C37.6716 15.8551 37.9416 15.9416 38.1791 16.033L37.5578 17.5458C37.0552 17.3615 36.5542 17.2156 36.0533 17.1083C35.554 17.0009 35.0384 16.948 34.5082 16.948C34.1389 16.948 33.8267 16.9752 33.5713 17.0297C33.316 17.0842 33.1078 17.1563 32.9468 17.2461C32.7874 17.3358 32.6703 17.44 32.5971 17.5554C32.5239 17.6723 32.4865 17.7925 32.4865 17.9207C32.4865 18.0137 32.506 18.097 32.5434 18.1707C32.5808 18.246 32.6426 18.3102 32.7304 18.3646C32.8166 18.4191 32.9305 18.4608 33.0704 18.4896C33.2102 18.5185 33.3826 18.5329 33.5876 18.5329C33.7746 18.5329 33.973 18.5217 34.1812 18.5008C34.391 18.4784 34.609 18.456 34.8351 18.4319C35.0612 18.4079 35.297 18.3855 35.5393 18.363C35.7817 18.3422 36.0289 18.331 36.2826 18.331C36.7543 18.331 37.1658 18.3855 37.5203 18.4944C37.8749 18.605 38.1677 18.7573 38.3986 18.9544C38.6296 19.1515 38.8036 19.3838 38.9191 19.6515C39.0346 19.9191 39.0915 20.2091 39.0915 20.5248C39.0915 20.9335 38.9955 21.3117 38.8053 21.6626C38.615 22.0136 38.3287 22.3165 37.9514 22.5729C37.574 22.8293 37.1023 23.0296 36.5396 23.1738C35.9768 23.318 35.3263 23.3901 34.5878 23.3901C34.1341 23.3901 33.6966 23.3629 33.2737 23.3084C32.8508 23.2539 32.4491 23.1802 32.0668 23.0857C31.6846 22.9911 31.3252 22.8805 30.9901 22.754C30.6535 22.6274 30.3477 22.4911 30.0728 22.3469L30.9267 20.8742L30.9283 20.8694Z" fill="#393840"/>
<path d="M40.3957 19.3903C40.3957 18.8198 40.5014 18.2894 40.7128 17.7958C40.9243 17.3022 41.2333 16.876 41.6399 16.5138C42.0465 16.1516 42.5442 15.868 43.1346 15.6628C43.725 15.4577 44.3967 15.3536 45.153 15.3536C45.4816 15.3536 45.8134 15.3744 46.1468 15.4128C46.4802 15.4529 46.8023 15.5074 47.1113 15.5811C47.4203 15.6532 47.7098 15.7398 47.9814 15.8375C48.2531 15.9369 48.4889 16.0442 48.689 16.1628L47.7749 17.6291C47.3439 17.432 46.9356 17.2878 46.5502 17.1949C46.1647 17.1035 45.7743 17.057 45.3791 17.057C44.9253 17.057 44.5187 17.1147 44.1577 17.2317C43.7966 17.3487 43.4924 17.5105 43.2403 17.7189C42.9882 17.9272 42.7979 18.1724 42.6662 18.4544C42.5345 18.7381 42.4694 19.0458 42.4694 19.3775C42.4694 19.7092 42.5393 20.0185 42.6792 20.3005C42.8191 20.5842 43.0175 20.8262 43.2729 21.0313C43.5282 21.2364 43.8372 21.3951 44.1999 21.5104C44.5626 21.6274 44.966 21.6851 45.41 21.6851C45.8996 21.6851 46.3599 21.6178 46.7941 21.4816C47.2284 21.3454 47.6318 21.1643 48.0042 20.9367L48.9183 22.4031C48.6825 22.5425 48.4271 22.6739 48.1506 22.7941C47.8757 22.9143 47.5797 23.0184 47.2674 23.1066C46.9552 23.1947 46.625 23.2636 46.2802 23.3133C45.9354 23.3646 45.5792 23.3886 45.21 23.3886C44.4585 23.3886 43.7836 23.2876 43.1883 23.0857C42.5914 22.8838 42.0872 22.605 41.6741 22.2476C41.2593 21.8902 40.9422 21.4688 40.7226 20.9816C40.503 20.4961 40.3924 19.9656 40.3924 19.3919L40.3957 19.3903Z" fill="#393840"/>
<path d="M50.6766 19.3438C50.6766 18.8182 50.7856 18.315 51.0036 17.8359C51.2215 17.3551 51.5354 16.932 51.9437 16.5635C52.3519 16.1949 52.8545 15.9016 53.4481 15.6821C54.0418 15.4641 54.7168 15.3536 55.4731 15.3536C56.2294 15.3536 56.9011 15.4641 57.5045 15.6853C58.1079 15.9064 58.6186 16.2093 59.0399 16.5955C59.4611 16.9817 59.7815 17.4352 60.0076 17.9561C60.2321 18.4785 60.3443 19.0361 60.3443 19.6323C60.3443 19.7076 60.3443 19.7861 60.341 19.8727C60.3378 19.9576 60.3329 20.0361 60.3248 20.1066H52.8789C52.9634 20.339 53.1001 20.5505 53.2887 20.7444C53.4774 20.9367 53.7149 21.1034 53.9995 21.2444C54.2841 21.3838 54.6143 21.4928 54.9867 21.5697C55.3592 21.6467 55.774 21.6851 56.2277 21.6851C56.6815 21.6851 57.132 21.6387 57.5826 21.5441C58.0315 21.4496 58.4609 21.331 58.8707 21.1851L59.5376 22.6707C59.2806 22.7893 59.0187 22.8934 58.7536 22.9832C58.4885 23.0729 58.2136 23.1482 57.9274 23.2075C57.6395 23.2668 57.3402 23.3117 57.0263 23.3421C56.7124 23.3726 56.3822 23.3886 56.0358 23.3886C55.151 23.3886 54.3736 23.2844 53.7067 23.0729C53.0399 22.863 52.482 22.5761 52.0315 22.2124C51.5826 21.8486 51.2443 21.4207 51.0182 20.9303C50.7905 20.44 50.6783 19.9111 50.6783 19.3454L50.6766 19.3438ZM58.2494 18.5874C58.1778 18.3727 58.0689 18.1724 57.9192 17.9865C57.7712 17.8006 57.5842 17.6387 57.363 17.4993C57.1418 17.3615 56.8832 17.2525 56.5888 17.174C56.296 17.0955 55.9724 17.0554 55.6211 17.0554C55.2486 17.0554 54.9071 17.0971 54.6013 17.1804C54.2939 17.2638 54.0255 17.3759 53.7929 17.5154C53.562 17.6564 53.3701 17.8182 53.2155 18.0025C53.061 18.1868 52.9504 18.3807 52.8789 18.5874H58.2494Z" fill="#393840"/>
<path d="M62.4653 15.4914H64.4399V16.1484C64.9652 15.8551 65.4662 15.6484 65.9443 15.5298C66.4225 15.4112 66.8909 15.3519 67.348 15.3519C67.9481 15.3519 68.5044 15.4385 69.0167 15.6116C69.5274 15.7846 69.9714 16.0426 70.3439 16.384C70.718 16.7269 71.0107 17.1516 71.2206 17.6628C71.432 18.174 71.5377 18.7637 71.5377 19.4336V23.246H69.5697V19.7493C69.5697 19.3246 69.5079 18.9448 69.3859 18.6083C69.2639 18.2733 69.0883 17.9897 68.8589 17.7605C68.6296 17.5298 68.3515 17.3551 68.0246 17.2349C67.6977 17.1147 67.3317 17.0538 66.9267 17.0538C66.7136 17.0538 66.4941 17.0763 66.2696 17.1195C66.0452 17.1628 65.824 17.2253 65.6093 17.307C65.3946 17.3888 65.1864 17.4897 64.9864 17.6099C64.7863 17.7301 64.6041 17.8679 64.4382 18.0201V23.246H62.4637V15.4882L62.4653 15.4914Z" fill="#393840"/>
<path d="M75.1502 16.9513H73.2489V15.4914H75.1502V13.0796H77.1248V15.4914H79.0261V16.9513H77.1248V23.2492H75.1502V16.9513Z" fill="#393840"/>
<path d="M80.4072 19.3438C80.4072 18.8182 80.5162 18.315 80.7341 17.8359C80.9521 17.3551 81.266 16.932 81.6758 16.5635C82.0857 16.1949 82.5867 15.9016 83.1803 15.6821C83.774 15.4641 84.449 15.3536 85.2053 15.3536C85.9616 15.3536 86.6333 15.4641 87.2367 15.6853C87.8401 15.9064 88.3508 16.2093 88.7721 16.5955C89.1917 16.9817 89.5154 17.4352 89.7398 17.9561C89.9643 18.4785 90.0765 19.0361 90.0765 19.6323C90.0765 19.7076 90.0765 19.7861 90.0732 19.8727C90.0716 19.9576 90.0651 20.0361 90.057 20.1066H82.6111C82.6956 20.339 82.8323 20.5505 83.0209 20.7444C83.2096 20.9367 83.4471 21.1034 83.7317 21.2444C84.0163 21.3854 84.3449 21.4928 84.719 21.5697C85.0914 21.6467 85.5062 21.6851 85.9599 21.6851C86.4137 21.6851 86.8659 21.6387 87.3148 21.5441C87.7637 21.4496 88.1931 21.331 88.6029 21.1851L89.2698 22.6707C89.0112 22.7893 88.7509 22.8934 88.4858 22.9832C88.2207 23.0729 87.9458 23.1482 87.658 23.2075C87.3717 23.2668 87.0708 23.3117 86.7585 23.3421C86.4462 23.3726 86.1145 23.3886 85.768 23.3886C84.8832 23.3886 84.1074 23.2844 83.4389 23.0729C82.7721 22.863 82.2126 22.5761 81.7637 22.2124C81.3148 21.8486 80.9765 21.4207 80.7488 20.9303C80.5227 20.44 80.4088 19.9111 80.4088 19.3454L80.4072 19.3438ZM87.98 18.5874C87.9084 18.3727 87.7995 18.1724 87.6498 17.9865C87.5002 17.8006 87.3148 17.6387 87.0936 17.4993C86.8708 17.3615 86.6121 17.2525 86.3194 17.174C86.025 17.0955 85.703 17.0554 85.3516 17.0554C84.9776 17.0554 84.6376 17.0971 84.3302 17.1804C84.0228 17.2638 83.7545 17.3759 83.5235 17.5154C83.2926 17.6564 83.1006 17.8182 82.9461 18.0025C82.7916 18.1868 82.681 18.3807 82.6094 18.5874H87.98Z" fill="#393840"/>
<path d="M91.5884 19.4031C91.5884 18.7846 91.7056 18.2285 91.943 17.7301C92.1788 17.2333 92.5041 16.8071 92.9205 16.4545C93.3369 16.1019 93.8297 15.8295 94.4022 15.6388C94.9747 15.4481 95.5928 15.3536 96.2613 15.3536C96.5459 15.3536 96.8273 15.3712 97.1054 15.4064C97.3835 15.4417 97.6502 15.4898 97.9056 15.5507C98.161 15.6132 98.4017 15.6853 98.6261 15.7702C98.8506 15.8568 99.049 15.9481 99.223 16.0491V12.3408H101.198V23.246H99.223V22.5168C99.049 22.6354 98.8441 22.746 98.6099 22.8518C98.374 22.9559 98.1203 23.0489 97.8487 23.1274C97.577 23.2059 97.2957 23.2684 97.0045 23.3149C96.7134 23.3598 96.4255 23.3838 96.1409 23.3838C95.474 23.3838 94.8609 23.2877 94.303 23.0954C93.7451 22.9015 93.2653 22.6306 92.8652 22.2797C92.4651 21.9287 92.1528 21.5089 91.9284 21.0217C91.7039 20.5345 91.5917 19.9929 91.5917 19.4015L91.5884 19.4031ZM93.6638 19.4031C93.6638 19.714 93.7272 20.0073 93.8541 20.2845C93.981 20.5602 94.1631 20.8021 94.4006 21.0105C94.6397 21.2188 94.9243 21.3839 95.261 21.5041C95.5977 21.6242 95.9734 21.6851 96.393 21.6851C96.6597 21.6851 96.9265 21.6595 97.1932 21.6098C97.46 21.5585 97.7169 21.488 97.9641 21.3967C98.2114 21.3053 98.4423 21.1932 98.6586 21.0618C98.875 20.9304 99.062 20.7829 99.223 20.6211V17.932C99.023 17.7734 98.8115 17.6404 98.5887 17.5314C98.3675 17.4224 98.1398 17.3327 97.9089 17.2622C97.6779 17.1917 97.4437 17.1404 97.2078 17.1083C96.972 17.0763 96.7427 17.0586 96.5199 17.0586C96.0661 17.0586 95.6627 17.1195 95.3098 17.2397C94.9568 17.3599 94.6576 17.525 94.4152 17.7365C94.1729 17.9465 93.9875 18.1948 93.859 18.4785C93.7305 18.7637 93.6654 19.073 93.6654 19.4063L93.6638 19.4031Z" fill="#393840"/>
<path d="M103.65 22.1114C103.65 21.9368 103.688 21.7701 103.761 21.6147C103.834 21.4592 103.94 21.323 104.078 21.2076C104.216 21.0906 104.382 21.0009 104.577 20.9352C104.774 20.8695 104.994 20.8358 105.238 20.8358C105.482 20.8358 105.703 20.8695 105.898 20.9352C106.093 21.0009 106.259 21.0922 106.396 21.2076C106.532 21.323 106.636 21.4592 106.71 21.6147C106.783 21.7701 106.82 21.9352 106.82 22.1114C106.82 22.2877 106.783 22.4528 106.71 22.6082C106.636 22.7637 106.532 22.8983 106.396 23.0121C106.259 23.1258 106.095 23.2172 105.898 23.2845C105.701 23.3518 105.482 23.3871 105.238 23.3871C104.994 23.3871 104.772 23.3534 104.577 23.2845C104.382 23.2172 104.215 23.1258 104.078 23.0121C103.94 22.8983 103.834 22.7637 103.761 22.6082C103.688 22.4528 103.65 22.2877 103.65 22.1114Z" fill="#393840"/>
<path d="M108.962 20.8037C108.962 20.4303 109.043 20.0906 109.209 19.7845C109.373 19.4768 109.621 19.214 109.949 18.9929C110.279 18.7717 110.689 18.6003 111.18 18.4801C111.672 18.3599 112.244 18.299 112.898 18.299C113.383 18.299 113.893 18.3342 114.428 18.4048C114.963 18.4753 115.516 18.5826 116.087 18.7269C116.065 18.4817 115.99 18.2541 115.86 18.0458C115.73 17.8375 115.552 17.658 115.323 17.5073C115.094 17.3551 114.819 17.2397 114.495 17.1548C114.173 17.0715 113.807 17.0298 113.397 17.0298C113.174 17.0298 112.93 17.0426 112.664 17.0682C112.397 17.0955 112.12 17.134 111.836 17.1868C111.551 17.2397 111.27 17.3054 110.992 17.3839C110.714 17.4625 110.455 17.557 110.214 17.6676L109.614 16.0699C109.912 15.9657 110.231 15.868 110.572 15.7814C110.914 15.6949 111.26 15.618 111.616 15.5539C111.972 15.4898 112.329 15.4417 112.683 15.4064C113.038 15.3712 113.383 15.3536 113.718 15.3536C115.19 15.3536 116.284 15.7237 117 16.4641C117.715 17.2045 118.075 18.3407 118.075 19.8695V23.2476H116.1V22.5184C115.895 22.637 115.671 22.7476 115.429 22.8534C115.186 22.9575 114.923 23.0505 114.638 23.129C114.354 23.2075 114.048 23.27 113.721 23.3165C113.394 23.3614 113.048 23.3854 112.683 23.3854C112.07 23.3854 111.53 23.3197 111.065 23.1883C110.6 23.0569 110.211 22.8758 109.9 22.6434C109.59 22.4111 109.354 22.1386 109.196 21.8245C109.038 21.5121 108.96 21.1707 108.96 20.8021L108.962 20.8037ZM111.044 20.738C111.044 20.8646 111.076 20.9864 111.143 21.1034C111.21 21.2204 111.315 21.323 111.463 21.4127C111.61 21.5024 111.798 21.5745 112.028 21.629C112.257 21.6835 112.534 21.7108 112.859 21.7108C113.205 21.7108 113.542 21.6803 113.866 21.6178C114.191 21.5569 114.493 21.4752 114.773 21.3742C115.053 21.2733 115.307 21.1563 115.534 21.0249C115.762 20.8935 115.949 20.7573 116.102 20.6178V20.2749C115.799 20.1916 115.5 20.1227 115.204 20.065C114.908 20.0089 114.627 19.9624 114.357 19.9304C114.087 19.8967 113.833 19.8743 113.597 19.8615C113.358 19.8486 113.152 19.8422 112.973 19.8422C112.604 19.8422 112.296 19.8663 112.052 19.9143C111.808 19.9624 111.61 20.0265 111.458 20.1082C111.307 20.19 111.2 20.2845 111.138 20.3935C111.075 20.5041 111.045 20.6178 111.045 20.7364L111.044 20.738Z" fill="#393840"/>
<path d="M121.726 14.4337C121.529 14.4337 121.353 14.4065 121.195 14.352C121.038 14.2975 120.903 14.2222 120.792 14.1293C120.681 14.0347 120.595 13.9257 120.535 13.8007C120.475 13.6757 120.446 13.5427 120.446 13.4033C120.446 13.2639 120.475 13.1245 120.535 12.9995C120.595 12.8745 120.681 12.7655 120.792 12.6742C120.904 12.5828 121.038 12.5091 121.195 12.4546C121.353 12.4001 121.53 12.3729 121.726 12.3729C121.921 12.3729 122.105 12.4001 122.262 12.4546C122.42 12.5091 122.555 12.5828 122.666 12.6742C122.778 12.7671 122.862 12.8745 122.923 12.9995C122.983 13.1245 123.012 13.2591 123.012 13.4033C123.012 13.5475 122.983 13.6757 122.923 13.8007C122.862 13.9257 122.776 14.0363 122.666 14.1293C122.553 14.2238 122.42 14.2975 122.262 14.352C122.105 14.4065 121.926 14.4337 121.726 14.4337ZM120.738 15.4914H122.713V23.2492H120.738V15.4914Z" fill="#393840"/>
</g>
<defs>
<linearGradient id="paint0_linear_995_60" x1="-2.86888" y1="28.7007" x2="26.3538" y2="3.28967" gradientUnits="userSpaceOnUse">
<stop stop-color="#4395C7"/>
<stop offset="1" stop-color="#89E8C9"/>
</linearGradient>
<linearGradient id="paint1_linear_995_60" x1="-2.86888" y1="28.7007" x2="26.3538" y2="3.28967" gradientUnits="userSpaceOnUse">
<stop stop-color="#4395C7"/>
<stop offset="1" stop-color="#89E8C9"/>
</linearGradient>
<linearGradient id="paint2_linear_995_60" x1="-2.86888" y1="28.7007" x2="26.3538" y2="3.28967" gradientUnits="userSpaceOnUse">
<stop stop-color="#4395C7"/>
<stop offset="1" stop-color="#89E8C9"/>
</linearGradient>
<clipPath id="clip0_995_60">
<rect width="124" height="32" fill="white"/>
</clipPath>
</defs>
</svg>
