<svg width="88" height="88" viewBox="0 0 88 88" fill="none" xmlns="http://www.w3.org/2000/svg">
<g filter="url(#filter0_d_993_10111)">
<rect x="14" y="11" width="60" height="60" rx="15" fill="#1F1F1F"/>
<mask id="mask0_993_10111" style="mask-type:luminance" maskUnits="userSpaceOnUse" x="29" y="27" width="19" height="30">
<path d="M46.6833 49.6407C45.2236 48.181 42.8575 48.181 41.3978 49.6407C39.9381 51.1004 37.572 51.1004 36.1123 49.6407L36.1096 49.6434C34.6526 48.1837 34.6532 45.8189 36.1123 44.3605L36.1096 44.3579C36.1096 44.3579 36.1116 44.3565 36.1123 44.3552C37.572 42.8955 37.572 40.5294 36.1123 39.0697C34.6526 37.61 34.6526 35.2439 36.1123 33.7842L36.107 33.7789C37.5667 32.3192 37.5667 29.9531 36.107 28.4934C34.6473 27.0337 32.2812 27.0337 30.8215 28.4934C29.3618 29.9531 29.3618 32.3192 30.8215 33.7789C32.2812 35.2386 32.2812 37.6047 30.8215 39.0644L30.8241 39.067C30.8241 39.067 30.8221 39.0684 30.8215 39.0697C29.3618 40.5294 29.3618 42.8955 30.8215 44.3552C32.2812 45.8149 32.2812 48.181 30.8215 49.6407L30.8241 49.6434C30.8241 49.6434 30.8221 49.6447 30.8215 49.646C29.3618 51.1057 29.3618 53.4718 30.8215 54.9315C31.5516 55.6617 32.5093 56.0268 33.4669 56.0261C34.4245 56.0268 35.3821 55.6624 36.1123 54.9315C36.1203 54.9235 36.1276 54.9142 36.1356 54.9056C37.5972 53.4731 39.9421 53.4805 41.3925 54.9308L41.3978 54.9255C42.8575 56.3852 45.2236 56.3852 46.6833 54.9255C48.143 53.4658 48.143 51.0997 46.6833 49.64V49.6407Z" fill="white"/>
</mask>
<g mask="url(#mask0_993_10111)">
<path d="M58.3522 17.018H29.7255V56.0255H58.3522V17.018Z" fill="white"/>
</g>
<mask id="mask1_993_10111" style="mask-type:luminance" maskUnits="userSpaceOnUse" x="40" y="27" width="19" height="30">
<path d="M57.259 39.0697C55.7993 37.61 55.7993 35.2439 57.259 33.7842L57.257 33.7822C57.257 33.7822 57.2583 33.7809 57.259 33.7802C58.7187 32.3205 58.7187 29.9544 57.259 28.4947C56.8014 28.0372 56.2555 27.7233 55.6756 27.5531C54.4041 27.1767 52.9716 27.4899 51.9681 28.4934C51.9575 28.504 51.9489 28.5153 51.9389 28.526C50.4765 29.9524 48.1364 29.9431 46.688 28.4947L46.6826 28.5C45.2229 27.0403 42.8568 27.0403 41.3971 28.5C39.9374 29.9597 39.9374 32.3258 41.3971 33.7855C42.8568 35.2452 45.2229 35.2452 46.6826 33.7855C48.1423 32.3258 50.5084 32.3258 51.9681 33.7855L51.9715 33.7822C53.4278 35.2419 53.4272 37.606 51.9681 39.0644L51.9708 39.067C51.9708 39.067 51.9688 39.0684 51.9681 39.0697C50.5084 40.5294 50.5084 42.8955 51.9681 44.3552C53.4278 45.8149 53.4278 48.181 51.9681 49.6407L51.9735 49.646C50.5138 51.1057 50.5138 53.4718 51.9735 54.9315C53.4332 56.3912 55.7993 56.3912 57.259 54.9315C58.7187 53.4718 58.7187 51.1057 57.259 49.646C55.7993 48.1863 55.7993 45.8202 57.259 44.3605L57.2563 44.3579C57.2563 44.3579 57.2583 44.3565 57.259 44.3552C58.7187 42.8955 58.7187 40.5294 57.259 39.0697Z" fill="white"/>
</mask>
<g mask="url(#mask1_993_10111)">
<path d="M58.3537 17.018H29.727V56.0255H58.3537V17.018Z" fill="white"/>
</g>
<mask id="mask2_993_10111" style="mask-type:luminance" maskUnits="userSpaceOnUse" x="40" y="17" width="8" height="8">
<path d="M44.0392 24.4927C46.1033 24.4927 47.7765 22.8194 47.7765 20.7553C47.7765 18.6912 46.1033 17.018 44.0392 17.018C41.9751 17.018 40.3018 18.6912 40.3018 20.7553C40.3018 22.8194 41.9751 24.4927 44.0392 24.4927Z" fill="white"/>
</mask>
<g mask="url(#mask2_993_10111)">
<path d="M58.3521 17.018H29.7254V56.0255H58.3521V17.018Z" fill="white"/>
</g>
<path d="M25.3498 63.9361C25.5679 64.0671 25.808 64.1635 26.07 64.2253C26.332 64.2872 26.6 64.3178 26.8747 64.3178C27.0602 64.3178 27.2145 64.3051 27.3382 64.2799C27.4619 64.2539 27.561 64.2213 27.6354 64.1814C27.7099 64.1415 27.7631 64.0957 27.7937 64.0451C27.825 63.9939 27.8403 63.942 27.8403 63.8895C27.8403 63.813 27.807 63.7479 27.7405 63.6933C27.674 63.6388 27.5643 63.6115 27.412 63.6115C27.3415 63.6115 27.2644 63.6162 27.1832 63.6255C27.1014 63.6348 27.0156 63.6441 26.9252 63.6541C26.8348 63.6641 26.7417 63.6734 26.6439 63.6827C26.5461 63.692 26.4477 63.6967 26.348 63.6967C26.1299 63.6967 25.9436 63.6727 25.79 63.6255C25.6364 63.5783 25.5114 63.5138 25.415 63.432C25.3185 63.3502 25.2487 63.2531 25.2048 63.1414C25.1609 63.0296 25.1397 62.9093 25.1397 62.7803C25.1397 62.6167 25.1776 62.4657 25.254 62.3274C25.3305 62.1891 25.4396 62.0694 25.5812 61.969C25.7235 61.8679 25.8944 61.7894 26.0953 61.7329C26.2961 61.6764 26.5202 61.6484 26.7676 61.6484C26.8966 61.6484 27.0316 61.6564 27.1726 61.6717C27.3136 61.687 27.4519 61.7076 27.5882 61.7329C27.7245 61.7588 27.8556 61.7881 27.9812 61.8213C28.1069 61.8552 28.2173 61.8912 28.3144 61.9291L28.0604 62.5568C27.8549 62.4804 27.6501 62.4198 27.4452 62.3753C27.2411 62.3307 27.0303 62.3088 26.8135 62.3088C26.6625 62.3088 26.5348 62.3201 26.4304 62.3427C26.326 62.3653 26.2409 62.3952 26.1751 62.4325C26.1099 62.4697 26.062 62.5129 26.0321 62.5608C26.0022 62.6094 25.9869 62.6592 25.9869 62.7124C25.9869 62.751 25.9949 62.7856 26.0102 62.8162C26.0254 62.8474 26.0507 62.874 26.0866 62.8966C26.1219 62.9193 26.1684 62.9365 26.2256 62.9485C26.2828 62.9605 26.3533 62.9665 26.4371 62.9665C26.5136 62.9665 26.5947 62.9618 26.6798 62.9532C26.7656 62.9439 26.8547 62.9346 26.9471 62.9246C27.0396 62.9146 27.136 62.9053 27.2351 62.896C27.3342 62.8873 27.4353 62.8827 27.539 62.8827C27.7319 62.8827 27.9001 62.9053 28.0451 62.9505C28.1901 62.9964 28.3098 63.0596 28.4042 63.1414C28.4986 63.2232 28.5698 63.3196 28.617 63.4306C28.6642 63.5417 28.6875 63.6621 28.6875 63.7931C28.6875 63.9627 28.6482 64.1196 28.5704 64.2652C28.4926 64.4109 28.3756 64.5366 28.2213 64.643C28.067 64.7494 27.8742 64.8325 27.6441 64.8923C27.414 64.9522 27.148 64.9821 26.8461 64.9821C26.6605 64.9821 26.4816 64.9708 26.3087 64.9482C26.1358 64.9256 25.9716 64.895 25.8153 64.8558C25.659 64.8165 25.5121 64.7706 25.3751 64.7181C25.2374 64.6656 25.1124 64.609 25 64.5492L25.3491 63.9381L25.3498 63.9361Z" fill="white"/>
<path d="M29.2208 63.3223C29.2208 63.0855 29.264 62.8654 29.3505 62.6606C29.4369 62.4557 29.5633 62.2789 29.7295 62.1286C29.8958 61.9783 30.0993 61.8606 30.3407 61.7754C30.5821 61.6903 30.8567 61.6471 31.166 61.6471C31.3003 61.6471 31.436 61.6557 31.5723 61.6717C31.7086 61.6883 31.8403 61.7109 31.9666 61.7415C32.093 61.7715 32.2114 61.8074 32.3224 61.8479C32.4335 61.8892 32.5299 61.9337 32.6117 61.9829L32.238 62.5914C32.0617 62.5096 31.8948 62.4498 31.7372 62.4112C31.5796 62.3733 31.42 62.354 31.2584 62.354C31.0729 62.354 30.9066 62.3779 30.759 62.4265C30.6113 62.475 30.487 62.5422 30.3839 62.6286C30.2808 62.7151 30.203 62.8168 30.1492 62.9339C30.0953 63.0516 30.0687 63.1793 30.0687 63.3169C30.0687 63.4546 30.0973 63.5829 30.1545 63.7C30.2117 63.8177 30.2928 63.9181 30.3972 64.0032C30.5016 64.0883 30.628 64.1542 30.7763 64.2021C30.9246 64.2506 31.0895 64.2745 31.271 64.2745C31.4712 64.2745 31.6594 64.2466 31.837 64.1901C32.0145 64.1336 32.1794 64.0584 32.3317 63.964L32.7055 64.5725C32.609 64.6303 32.5046 64.6849 32.3916 64.7347C32.2792 64.7846 32.1582 64.8278 32.0305 64.8644C31.9028 64.901 31.7678 64.9296 31.6268 64.9502C31.4858 64.9715 31.3402 64.9815 31.1892 64.9815C30.882 64.9815 30.606 64.9396 30.3626 64.8558C30.1186 64.772 29.9124 64.6563 29.7435 64.508C29.5739 64.3597 29.4443 64.1848 29.3545 63.9826C29.2647 63.7811 29.2195 63.561 29.2195 63.3229L29.2208 63.3223Z" fill="white"/>
<path d="M33.4243 63.303C33.4243 63.0848 33.4689 62.876 33.558 62.6772C33.6471 62.4777 33.7754 62.3021 33.9424 62.1492C34.1093 61.9962 34.3148 61.8745 34.5575 61.7834C34.8002 61.693 35.0762 61.6471 35.3854 61.6471C35.6947 61.6471 35.9693 61.693 36.216 61.7847C36.4627 61.8765 36.6716 62.0022 36.8438 62.1625C37.016 62.3227 37.147 62.5109 37.2395 62.7271C37.3313 62.9439 37.3771 63.1753 37.3771 63.4227C37.3771 63.4539 37.3771 63.4865 37.3758 63.5224C37.3745 63.5577 37.3725 63.5903 37.3692 63.6195H34.3247C34.3593 63.7159 34.4152 63.8037 34.4923 63.8842C34.5695 63.964 34.6666 64.0331 34.7829 64.0917C34.8993 64.1495 35.0343 64.1947 35.1866 64.2267C35.3389 64.2586 35.5085 64.2745 35.694 64.2745C35.8795 64.2745 36.0637 64.2553 36.2479 64.216C36.4315 64.1768 36.6071 64.1276 36.7746 64.0671L37.0473 64.6835C36.9422 64.7327 36.8352 64.776 36.7268 64.8132C36.6184 64.8504 36.506 64.8817 36.3889 64.9063C36.2712 64.9309 36.1489 64.9495 36.0205 64.9622C35.8922 64.9748 35.7572 64.9815 35.6155 64.9815C35.2538 64.9815 34.9359 64.9382 34.6632 64.8504C34.3906 64.7633 34.1625 64.6443 33.9783 64.4933C33.7947 64.3424 33.6564 64.1648 33.564 63.9613C33.4709 63.7578 33.425 63.5384 33.425 63.3036L33.4243 63.303ZM36.5206 62.9891C36.4913 62.9 36.4468 62.8168 36.3856 62.7397C36.3251 62.6626 36.2486 62.5954 36.1582 62.5375C36.0677 62.4803 35.962 62.4351 35.8416 62.4025C35.7219 62.37 35.5896 62.3533 35.4459 62.3533C35.2937 62.3533 35.154 62.3706 35.029 62.4052C34.9033 62.4398 34.7936 62.4863 34.6985 62.5442C34.604 62.6027 34.5256 62.6699 34.4624 62.7464C34.3992 62.8228 34.354 62.9033 34.3247 62.9891H36.5206Z" fill="white"/>
<path d="M38.2443 61.7043H39.0516V61.9769C39.2664 61.8552 39.4713 61.7695 39.6668 61.7203C39.8623 61.671 40.0538 61.6464 40.2407 61.6464C40.4861 61.6464 40.7135 61.6823 40.923 61.7542C41.1318 61.826 41.3133 61.9331 41.4656 62.0747C41.6186 62.217 41.7383 62.3932 41.8241 62.6054C41.9105 62.8175 41.9537 63.0622 41.9537 63.3402V64.9223H41.1491V63.4712C41.1491 63.295 41.1238 63.1374 41.0739 62.9977C41.0241 62.8588 40.9522 62.741 40.8585 62.6459C40.7647 62.5502 40.651 62.4777 40.5173 62.4278C40.3837 62.3779 40.234 62.3527 40.0684 62.3527C39.9813 62.3527 39.8915 62.362 39.7998 62.3799C39.708 62.3979 39.6176 62.4238 39.5298 62.4578C39.442 62.4917 39.3569 62.5336 39.2751 62.5834C39.1933 62.6333 39.1188 62.6905 39.051 62.7537V64.9223H38.2437V61.703L38.2443 61.7043Z" fill="white"/>
<path d="M43.4308 62.3101H42.6534V61.7043H43.4308V60.7034H44.2381V61.7043H45.0155V62.3101H44.2381V64.9236H43.4308V62.3101Z" fill="white"/>
<path d="M45.5801 63.303C45.5801 63.0848 45.6246 62.876 45.7137 62.6772C45.8029 62.4777 45.9312 62.3021 46.0988 62.1492C46.2664 61.9962 46.4712 61.8745 46.7139 61.7834C46.9566 61.693 47.2326 61.6471 47.5419 61.6471C47.8511 61.6471 48.1257 61.693 48.3725 61.7847C48.6192 61.8765 48.828 62.0022 49.0002 62.1625C49.1718 62.3227 49.3041 62.5109 49.3959 62.7271C49.4877 62.9439 49.5336 63.1753 49.5336 63.4227C49.5336 63.4539 49.5336 63.4865 49.5322 63.5224C49.5316 63.5577 49.5289 63.5903 49.5256 63.6195H46.4812C46.5157 63.7159 46.5716 63.8037 46.6488 63.8842C46.7259 63.964 46.823 64.0331 46.9394 64.0917C47.0557 64.1502 47.1901 64.1947 47.343 64.2267C47.4953 64.2586 47.6649 64.2745 47.8504 64.2745C48.036 64.2745 48.2208 64.2553 48.4044 64.216C48.5879 64.1768 48.7635 64.1276 48.9311 64.0671L49.2037 64.6835C49.098 64.7327 48.9916 64.776 48.8832 64.8132C48.7748 64.8504 48.6624 64.8817 48.5447 64.9063C48.4277 64.9309 48.3046 64.9495 48.1769 64.9622C48.0493 64.9748 47.9136 64.9815 47.772 64.9815C47.4102 64.9815 47.093 64.9382 46.8197 64.8504C46.547 64.7633 46.3182 64.6443 46.1347 64.4933C45.9512 64.3424 45.8128 64.1648 45.7197 63.9613C45.6273 63.7578 45.5807 63.5384 45.5807 63.3036L45.5801 63.303ZM48.6764 62.9891C48.6471 62.9 48.6026 62.8168 48.5414 62.7397C48.4802 62.6626 48.4044 62.5954 48.3139 62.5375C48.2228 62.4803 48.1171 62.4351 47.9974 62.4025C47.877 62.37 47.7454 62.3533 47.6017 62.3533C47.4488 62.3533 47.3098 62.3706 47.1841 62.4052C47.0584 62.4398 46.9487 62.4863 46.8542 62.5442C46.7598 62.6027 46.6813 62.6699 46.6182 62.7464C46.555 62.8228 46.5098 62.9033 46.4805 62.9891H48.6764Z" fill="white"/>
<path d="M50.152 63.3275C50.152 63.0708 50.1999 62.8401 50.297 62.6333C50.3934 62.4271 50.5264 62.2502 50.6967 62.1039C50.8669 61.9576 51.0684 61.8446 51.3025 61.7654C51.5366 61.6863 51.7893 61.6471 52.0626 61.6471C52.179 61.6471 52.294 61.6544 52.4078 61.669C52.5215 61.6836 52.6305 61.7036 52.7349 61.7289C52.8393 61.7548 52.9378 61.7847 53.0295 61.82C53.1213 61.8559 53.2024 61.8938 53.2736 61.9357V60.3968H54.0809V64.9222H53.2736V64.6197C53.2024 64.6689 53.1187 64.7148 53.0229 64.7586C52.9265 64.8019 52.8227 64.8404 52.7117 64.873C52.6006 64.9056 52.4856 64.9315 52.3665 64.9508C52.2475 64.9695 52.1298 64.9794 52.0134 64.9794C51.7407 64.9794 51.49 64.9395 51.2619 64.8597C51.0338 64.7793 50.8377 64.6669 50.6741 64.5212C50.5105 64.3756 50.3828 64.2014 50.291 63.9992C50.1993 63.797 50.1534 63.5723 50.1534 63.3269L50.152 63.3275ZM51.0006 63.3275C51.0006 63.4566 51.0265 63.5783 51.0784 63.6933C51.1303 63.8077 51.2048 63.9081 51.3018 63.9945C51.3996 64.081 51.516 64.1495 51.6536 64.1994C51.7913 64.2492 51.9449 64.2745 52.1165 64.2745C52.2255 64.2745 52.3346 64.2639 52.4437 64.2433C52.5527 64.222 52.6578 64.1927 52.7589 64.1548C52.86 64.1169 52.9544 64.0704 53.0428 64.0158C53.1313 63.9613 53.2078 63.9001 53.2736 63.833V62.7171C53.1918 62.6512 53.1054 62.596 53.0142 62.5508C52.9238 62.5056 52.8307 62.4684 52.7363 62.4391C52.6418 62.4098 52.5461 62.3885 52.4496 62.3752C52.3532 62.3619 52.2595 62.3546 52.1683 62.3546C51.9828 62.3546 51.8179 62.3799 51.6736 62.4298C51.5293 62.4797 51.4069 62.5482 51.3078 62.6359C51.2087 62.7231 51.1329 62.8261 51.0804 62.9438C51.0279 63.0622 51.0013 63.1906 51.0013 63.3289L51.0006 63.3275Z" fill="white"/>
<path d="M55.0837 64.4514C55.0837 64.3789 55.099 64.3098 55.129 64.2453C55.1589 64.1808 55.2021 64.1242 55.2586 64.0764C55.3152 64.0278 55.383 63.9906 55.4628 63.9633C55.5433 63.936 55.633 63.9221 55.7328 63.9221C55.8325 63.9221 55.923 63.936 56.0028 63.9633C56.0826 63.9906 56.1504 64.0285 56.2063 64.0764C56.2621 64.1242 56.3047 64.1808 56.3346 64.2453C56.3645 64.3098 56.3798 64.3783 56.3798 64.4514C56.3798 64.5246 56.3645 64.5931 56.3346 64.6576C56.3047 64.7221 56.2621 64.7779 56.2063 64.8252C56.1504 64.8724 56.0833 64.9103 56.0028 64.9382C55.9223 64.9661 55.8325 64.9808 55.7328 64.9808C55.633 64.9808 55.5426 64.9668 55.4628 64.9382C55.383 64.9103 55.3145 64.8724 55.2586 64.8252C55.2021 64.7779 55.1589 64.7221 55.129 64.6576C55.099 64.5931 55.0837 64.5246 55.0837 64.4514Z" fill="white"/>
<path d="M57.2557 63.9088C57.2557 63.7538 57.2889 63.6129 57.3568 63.4858C57.4239 63.3582 57.525 63.2491 57.6593 63.1573C57.7943 63.0656 57.9619 62.9944 58.1627 62.9445C58.3636 62.8947 58.5977 62.8694 58.865 62.8694C59.0632 62.8694 59.272 62.884 59.4908 62.9133C59.7096 62.9425 59.9357 62.9871 60.1691 63.0469C60.1598 62.9452 60.1292 62.8508 60.076 62.7643C60.0228 62.6779 59.9503 62.6034 59.8565 62.5409C59.7628 62.4777 59.6504 62.4298 59.518 62.3946C59.3864 62.36 59.2367 62.3427 59.0692 62.3427C58.978 62.3427 58.8783 62.348 58.7692 62.3587C58.6602 62.37 58.5471 62.3859 58.4307 62.4079C58.3144 62.4298 58.1993 62.4571 58.0856 62.4897C57.9719 62.5222 57.8662 62.5615 57.7677 62.6074L57.5223 61.9444C57.644 61.9011 57.7744 61.8606 57.914 61.8247C58.0537 61.7887 58.1953 61.7568 58.341 61.7302C58.4866 61.7036 58.6322 61.6837 58.7772 61.669C58.9222 61.6544 59.0632 61.6471 59.2002 61.6471C59.802 61.6471 60.2495 61.8007 60.5421 62.1079C60.8348 62.4152 60.9817 62.8867 60.9817 63.5211V64.9229H60.1744V64.6204C60.0906 64.6696 59.9988 64.7155 59.8998 64.7593C59.8007 64.8026 59.6929 64.8411 59.5766 64.8737C59.4602 64.9063 59.3352 64.9322 59.2015 64.9515C59.0678 64.9702 58.9262 64.9801 58.7772 64.9801C58.5265 64.9801 58.3057 64.9529 58.1155 64.8983C57.9253 64.8438 57.7664 64.7687 57.6394 64.6722C57.5124 64.5758 57.4159 64.4627 57.3514 64.3324C57.2869 64.2027 57.255 64.0611 57.255 63.9081L57.2557 63.9088ZM58.1069 63.8815C58.1069 63.9341 58.1202 63.9846 58.1475 64.0332C58.1747 64.0817 58.2179 64.1243 58.2785 64.1615C58.3383 64.1987 58.4155 64.2287 58.5092 64.2513C58.603 64.2739 58.716 64.2852 58.849 64.2852C58.9907 64.2852 59.1283 64.2726 59.2607 64.2466C59.3937 64.2213 59.5174 64.1874 59.6318 64.1455C59.7461 64.1036 59.8499 64.0551 59.943 64.0006C60.0361 63.946 60.1126 63.8895 60.1751 63.8317V63.6893C60.0514 63.6548 59.929 63.6262 59.808 63.6022C59.6869 63.5789 59.5719 63.5597 59.4615 63.5464C59.3511 63.5324 59.2474 63.5231 59.1509 63.5178C59.0532 63.5124 58.9687 63.5098 58.8956 63.5098C58.7446 63.5098 58.6189 63.5198 58.5192 63.5397C58.4194 63.5597 58.3383 63.5863 58.2765 63.6202C58.2146 63.6541 58.1707 63.6933 58.1455 63.7385C58.1195 63.7844 58.1075 63.8317 58.1075 63.8809L58.1069 63.8815Z" fill="white"/>
<path d="M62.474 61.2654C62.3935 61.2654 62.3217 61.2541 62.2572 61.2314C62.1927 61.2088 62.1375 61.1776 62.0923 61.139C62.047 61.0998 62.0118 61.0546 61.9872 61.0027C61.9626 60.9508 61.9506 60.8956 61.9506 60.8378C61.9506 60.7799 61.9626 60.722 61.9872 60.6702C62.0118 60.6183 62.047 60.5731 62.0923 60.5352C62.1382 60.4973 62.1927 60.4667 62.2572 60.4441C62.3217 60.4215 62.3942 60.4102 62.474 60.4102C62.5538 60.4102 62.6289 60.4215 62.6934 60.4441C62.7579 60.4667 62.8131 60.4973 62.8584 60.5352C62.9042 60.5737 62.9388 60.6183 62.9634 60.6702C62.988 60.722 63 60.7779 63 60.8378C63 60.8976 62.988 60.9508 62.9634 61.0027C62.9388 61.0546 62.9036 61.1004 62.8584 61.139C62.8125 61.1782 62.7579 61.2088 62.6934 61.2314C62.6289 61.2541 62.5558 61.2654 62.474 61.2654ZM62.0703 61.7043H62.8776V64.9236H62.0703V61.7043Z" fill="white"/>
</g>
<defs>
<filter id="filter0_d_993_10111" x="0" y="0" width="88" height="88" filterUnits="userSpaceOnUse" color-interpolation-filters="sRGB">
<feFlood flood-opacity="0" result="BackgroundImageFix"/>
<feColorMatrix in="SourceAlpha" type="matrix" values="0 0 0 0 0 0 0 0 0 0 0 0 0 0 0 0 0 0 127 0" result="hardAlpha"/>
<feOffset dy="3"/>
<feGaussianBlur stdDeviation="7"/>
<feColorMatrix type="matrix" values="0 0 0 0 0 0 0 0 0 0 0 0 0 0 0 0 0 0 0.1 0"/>
<feBlend mode="normal" in2="BackgroundImageFix" result="effect1_dropShadow_993_10111"/>
<feBlend mode="normal" in="SourceGraphic" in2="effect1_dropShadow_993_10111" result="shape"/>
</filter>
</defs>
</svg>
