<svg width="48" height="48" viewBox="0 0 48 48" fill="none" xmlns="http://www.w3.org/2000/svg">
<path fill-rule="evenodd" clip-rule="evenodd" d="M10 14.8515C10.2065 17.7611 11.2166 20.5562 12.918 22.9255C13.4726 23.6284 14.138 24.2364 14.888 24.7255C15.6535 25.1625 16.4872 25.4674 17.354 25.6275C20.1317 25.9973 22.9562 25.5176 25.456 24.2515C25.2516 21.3393 24.242 18.5413 22.54 16.1695C21.9854 15.4666 21.32 14.8586 20.57 14.3695C19.8041 13.9346 18.9705 13.6317 18.104 13.4735C15.3255 13.1039 12.5002 13.5843 10 14.8515Z" stroke="#A0A3BD" stroke-linecap="round" stroke-linejoin="round"/>
<path d="M25.958 9.75159C25.958 9.47545 25.7342 9.25159 25.458 9.25159C25.1819 9.25159 24.958 9.47545 24.958 9.75159H25.458H25.958ZM24.958 17.9116C24.958 18.1877 25.1819 18.4116 25.458 18.4116C25.7342 18.4116 25.958 18.1877 25.958 17.9116H25.458H24.958ZM24.958 40.0276C24.958 40.3037 25.1819 40.5276 25.458 40.5276C25.7342 40.5276 25.958 40.3037 25.958 40.0276H25.458H24.958ZM25.958 17.9116C25.958 17.6354 25.7342 17.4116 25.458 17.4116C25.1819 17.4116 24.958 17.6354 24.958 17.9116H25.458H25.958ZM25.5204 20.8295C25.2464 20.795 24.9964 20.9892 24.9619 21.2632C24.9275 21.5372 25.1216 21.7872 25.3956 21.8217L25.458 21.3256L25.5204 20.8295ZM33.12 20.0276L33.3423 20.4754C33.3476 20.4728 33.3529 20.4701 33.3582 20.4672L33.12 20.0276ZM35.216 18.4556L35.5714 18.8073C35.5774 18.8012 35.5833 18.795 35.589 18.7885L35.216 18.4556ZM36.698 16.2276L37.1493 16.4429C37.1516 16.4381 37.1538 16.4332 37.1559 16.4283L36.698 16.2276ZM37.928 8.10359L38.4248 8.04742C38.3989 7.81791 38.2191 7.63604 37.9899 7.60744L37.928 8.10359ZM30.266 9.40959L30.0432 8.96197C30.0381 8.96454 30.0329 8.9672 30.0279 8.96995L30.266 9.40959ZM28.17 10.9816L27.8146 10.6299C27.8087 10.6359 27.8029 10.642 27.7973 10.6483L28.17 10.9816ZM26.688 13.2036L26.237 12.9876L26.2347 12.9926L26.688 13.2036ZM24.9614 17.8743C24.9408 18.1497 25.1474 18.3896 25.4227 18.4102C25.6981 18.4308 25.938 18.2242 25.9586 17.9489L25.46 17.9116L24.9614 17.8743ZM25.458 9.75159H24.958V17.9116H25.458H25.958V9.75159H25.458ZM25.458 40.0276H25.958V17.9116H25.458H24.958V40.0276H25.458ZM25.458 21.3256L25.3956 21.8217C28.1193 22.1643 30.8835 21.696 33.3423 20.4754L33.12 20.0276L32.8977 19.5797C30.615 20.7128 28.0489 21.1475 25.5204 20.8295L25.458 21.3256ZM33.12 20.0276L33.3582 20.4672C34.1734 20.0256 34.9192 19.4663 35.5714 18.8073L35.216 18.4556L34.8606 18.1039C34.2775 18.6931 33.6108 19.1931 32.8819 19.5879L33.12 20.0276ZM35.216 18.4556L35.589 18.7885C36.2175 18.0845 36.7428 17.2947 37.1493 16.4429L36.698 16.2276L36.2467 16.0123C35.8811 16.7786 35.4084 17.4892 34.843 18.1226L35.216 18.4556ZM36.698 16.2276L37.1559 16.4283C38.31 13.7953 38.7478 10.9041 38.4248 8.04742L37.928 8.10359L37.4312 8.15976C37.7343 10.8413 37.3234 13.5553 36.2401 16.0269L36.698 16.2276ZM37.928 8.10359L37.9899 7.60744C35.2655 7.26743 32.5012 7.7386 30.0432 8.96197L30.266 9.40959L30.4888 9.85721C32.7707 8.7215 35.3368 8.28409 37.8661 8.59974L37.928 8.10359ZM30.266 9.40959L30.0279 8.96995C29.2126 9.41156 28.4669 9.97087 27.8146 10.6299L28.17 10.9816L28.5254 11.3333C29.1085 10.7441 29.7753 10.2441 30.5042 9.84923L30.266 9.40959ZM28.17 10.9816L27.7973 10.6483C27.1693 11.3504 26.644 12.138 26.2371 12.9876L26.688 13.2036L27.1389 13.4196C27.5051 12.6552 27.9777 11.9466 28.5427 11.3149L28.17 10.9816ZM26.688 13.2036L26.2347 12.9926C25.5192 14.5296 25.0878 16.1836 24.9614 17.8743L25.46 17.9116L25.9586 17.9489C26.076 16.3785 26.4767 14.8423 27.1413 13.4146L26.688 13.2036Z" fill="#A0A3BD"/>
</svg>
