<svg width="48" height="48" viewBox="0 0 48 48" fill="none" xmlns="http://www.w3.org/2000/svg">
<path fill-rule="evenodd" clip-rule="evenodd" d="M29.25 24C29.25 26.8995 26.8995 29.25 24 29.25C21.1005 29.25 18.75 26.8995 18.75 24C18.75 21.1005 21.1005 18.75 24 18.75C26.8995 18.75 29.25 21.1005 29.25 24Z" stroke="black" stroke-linecap="round" stroke-linejoin="round"/>
<path d="M38 24.5C38.2761 24.5 38.5 24.2761 38.5 24C38.5 23.7239 38.2761 23.5 38 23.5V24V24.5ZM34.5 23.5C34.2239 23.5 34 23.7239 34 24C34 24.2761 34.2239 24.5 34.5 24.5V24V23.5ZM13.5 24.5C13.7761 24.5 14 24.2761 14 24C14 23.7239 13.7761 23.5 13.5 23.5V24V24.5ZM10 23.5C9.72386 23.5 9.5 23.7239 9.5 24C9.5 24.2761 9.72386 24.5 10 24.5V24V23.5ZM24.5 10C24.5 9.72386 24.2761 9.5 24 9.5C23.7239 9.5 23.5 9.72386 23.5 10H24H24.5ZM23.5 13.5C23.5 13.7761 23.7239 14 24 14C24.2761 14 24.5 13.7761 24.5 13.5H24H23.5ZM24.5 34.5C24.5 34.2239 24.2761 34 24 34C23.7239 34 23.5 34.2239 23.5 34.5H24H24.5ZM23.5 38C23.5 38.2761 23.7239 38.5 24 38.5C24.2761 38.5 24.5 38.2761 24.5 38H24H23.5ZM34.2536 14.4536C34.4488 14.2583 34.4488 13.9417 34.2536 13.7464C34.0583 13.5512 33.7417 13.5512 33.5464 13.7464L33.9 14.1L34.2536 14.4536ZM31.0704 16.2224C30.8752 16.4177 30.8752 16.7343 31.0704 16.9296C31.2657 17.1248 31.5823 17.1248 31.7776 16.9296L31.424 16.576L31.0704 16.2224ZM16.9296 31.7776C17.1248 31.5823 17.1248 31.2657 16.9296 31.0704C16.7343 30.8752 16.4177 30.8752 16.2224 31.0704L16.576 31.424L16.9296 31.7776ZM13.7464 33.5464C13.5512 33.7417 13.5512 34.0583 13.7464 34.2536C13.9417 34.4488 14.2583 34.4488 14.4536 34.2536L14.1 33.9L13.7464 33.5464ZM14.4536 13.7464C14.2583 13.5512 13.9417 13.5512 13.7464 13.7464C13.5512 13.9417 13.5512 14.2583 13.7464 14.4536L14.1 14.1L14.4536 13.7464ZM16.2224 16.9296C16.4177 17.1248 16.7343 17.1248 16.9296 16.9296C17.1248 16.7343 17.1248 16.4177 16.9296 16.2224L16.576 16.576L16.2224 16.9296ZM31.7796 31.0724C31.5843 30.8772 31.2677 30.8772 31.0724 31.0724C30.8772 31.2677 30.8772 31.5843 31.0724 31.7796L31.426 31.426L31.7796 31.0724ZM33.5464 34.2536C33.7417 34.4488 34.0583 34.4488 34.2536 34.2536C34.4488 34.0583 34.4488 33.7417 34.2536 33.5464L33.9 33.9L33.5464 34.2536ZM38 24V23.5H34.5V24V24.5H38V24ZM13.5 24V23.5H10V24V24.5H13.5V24ZM24 10H23.5V13.5H24H24.5V10H24ZM24 34.5H23.5V38H24H24.5V34.5H24ZM33.9 14.1L33.5464 13.7464L31.0704 16.2224L31.424 16.576L31.7776 16.9296L34.2536 14.4536L33.9 14.1ZM16.576 31.424L16.2224 31.0704L13.7464 33.5464L14.1 33.9L14.4536 34.2536L16.9296 31.7776L16.576 31.424ZM14.1 14.1L13.7464 14.4536L16.2224 16.9296L16.576 16.576L16.9296 16.2224L14.4536 13.7464L14.1 14.1ZM31.426 31.426L31.0724 31.7796L33.5464 34.2536L33.9 33.9L34.2536 33.5464L31.7796 31.0724L31.426 31.426Z" fill="black"/>
</svg>
