<svg width="48" height="48" viewBox="0 0 48 48" fill="none" xmlns="http://www.w3.org/2000/svg">
<path d="M28.3524 12.392C28.5689 12.2206 28.6054 11.9061 28.434 11.6896C28.2626 11.4731 27.9481 11.4366 27.7316 11.608L28.042 12L28.3524 12.392ZM23.6896 14.808C23.4731 14.9794 23.4366 15.2939 23.608 15.5104C23.7794 15.7269 24.0939 15.7634 24.3104 15.592L24 15.2L23.6896 14.808ZM23.6896 15.592C23.9061 15.7634 24.2206 15.7269 24.392 15.5104C24.5634 15.2939 24.5269 14.9794 24.3104 14.808L24 15.2L23.6896 15.592ZM20.2684 11.608C20.0519 11.4366 19.7374 11.4731 19.566 11.6896C19.3946 11.9061 19.4311 12.2206 19.6476 12.392L19.958 12L20.2684 11.608ZM23.5 15.2C23.5 15.4761 23.7239 15.7 24 15.7C24.2761 15.7 24.5 15.4761 24.5 15.2H24H23.5ZM24.5 8C24.5 7.72386 24.2761 7.5 24 7.5C23.7239 7.5 23.5 7.72386 23.5 8H24H24.5ZM24.5 15.2C24.5 14.9239 24.2761 14.7 24 14.7C23.7239 14.7 23.5 14.9239 23.5 15.2H24H24.5ZM23.5 32.8C23.5 33.0761 23.7239 33.3 24 33.3C24.2761 33.3 24.5 33.0761 24.5 32.8H24H23.5ZM19.6476 35.608C19.4311 35.7794 19.3946 36.0938 19.566 36.3104C19.7374 36.5269 20.0519 36.5634 20.2684 36.392L19.958 36L19.6476 35.608ZM24.3104 33.192C24.5269 33.0206 24.5634 32.7061 24.392 32.4896C24.2206 32.2731 23.9061 32.2366 23.6896 32.408L24 32.8L24.3104 33.192ZM24.3104 32.408C24.0939 32.2366 23.7794 32.2731 23.608 32.4896C23.4366 32.7061 23.4731 33.0206 23.6896 33.192L24 32.8L24.3104 32.408ZM27.7316 36.392C27.9481 36.5634 28.2626 36.5269 28.434 36.3104C28.6054 36.0938 28.5689 35.7794 28.3524 35.608L28.042 36L27.7316 36.392ZM24.5 32.8C24.5 32.5239 24.2761 32.3 24 32.3C23.7239 32.3 23.5 32.5239 23.5 32.8H24H24.5ZM23.5 40C23.5 40.2761 23.7239 40.5 24 40.5C24.2761 40.5 24.5 40.2761 24.5 40H24H23.5ZM11.6603 26.0697C11.4028 25.9701 11.1133 26.0981 11.0137 26.3557C10.9141 26.6132 11.0421 26.9027 11.2997 27.0023L11.48 26.536L11.6603 26.0697ZM16.1197 28.8663C16.3772 28.9659 16.6667 28.8379 16.7663 28.5803C16.8659 28.3228 16.7379 28.0333 16.4803 27.9337L16.3 28.4L16.1197 28.8663ZM16.7942 28.4761C16.8362 28.2032 16.649 27.9479 16.3761 27.9058C16.1032 27.8638 15.8479 28.051 15.8058 28.3239L16.3 28.4L16.7942 28.4761ZM15.0258 33.3879C14.9838 33.6608 15.171 33.9161 15.4439 33.9582C15.7168 34.0002 15.9721 33.813 16.0142 33.5401L15.52 33.464L15.0258 33.3879ZM16.5481 28.8341C16.7878 28.6971 16.8711 28.3917 16.7341 28.1519C16.5971 27.9122 16.2917 27.8289 16.0519 27.9659L16.3 28.4L16.5481 28.8341ZM9.75193 31.5659C9.51217 31.7029 9.42887 32.0083 9.56588 32.2481C9.70288 32.4878 10.0083 32.5711 10.2481 32.4341L10 32L9.75193 31.5659ZM16.0519 27.9659C15.8122 28.1029 15.7289 28.4083 15.8659 28.6481C16.0029 28.8878 16.3083 28.9711 16.5481 28.8341L16.3 28.4L16.0519 27.9659ZM31.9481 20.0341C32.1878 19.8971 32.2711 19.5917 32.1341 19.3519C31.9971 19.1122 31.6917 19.0289 31.4519 19.1659L31.7 19.6L31.9481 20.0341ZM36.3397 21.9303C36.5972 22.0299 36.8867 21.9019 36.9863 21.6443C37.0859 21.3868 36.9579 21.0973 36.7003 20.9977L36.52 21.464L36.3397 21.9303ZM31.8803 19.1337C31.6228 19.0341 31.3333 19.1621 31.2337 19.4197C31.1341 19.6772 31.2621 19.9667 31.5197 20.0663L31.7 19.6L31.8803 19.1337ZM31.2058 19.5239C31.1638 19.7968 31.351 20.0521 31.6239 20.0942C31.8968 20.1362 32.1521 19.949 32.1942 19.6761L31.7 19.6L31.2058 19.5239ZM32.9742 14.6121C33.0162 14.3392 32.829 14.0839 32.5561 14.0418C32.2832 13.9998 32.0279 14.187 31.9858 14.4599L32.48 14.536L32.9742 14.6121ZM31.4519 19.1659C31.2122 19.3029 31.1289 19.6083 31.2659 19.8481C31.4029 20.0878 31.7083 20.1711 31.9481 20.0341L31.7 19.6L31.4519 19.1659ZM38.2481 16.4341C38.4878 16.2971 38.5711 15.9917 38.4341 15.7519C38.2971 15.5122 37.9917 15.4289 37.7519 15.5659L38 16L38.2481 16.4341ZM11.2997 20.9977C11.0421 21.0973 10.9141 21.3868 11.0137 21.6443C11.1133 21.9019 11.4028 22.0299 11.6603 21.9303L11.48 21.464L11.2997 20.9977ZM16.4803 20.0663C16.7379 19.9667 16.8659 19.6772 16.7663 19.4197C16.6667 19.1621 16.3772 19.0341 16.1197 19.1337L16.3 19.6L16.4803 20.0663ZM15.8058 19.6761C15.8479 19.949 16.1032 20.1362 16.3761 20.0942C16.649 20.0521 16.8362 19.7968 16.7942 19.5239L16.3 19.6L15.8058 19.6761ZM16.0142 14.4599C15.9721 14.187 15.7168 13.9998 15.4439 14.0418C15.171 14.0839 14.9838 14.3392 15.0258 14.6121L15.52 14.536L16.0142 14.4599ZM16.0519 20.0341C16.2917 20.1711 16.5971 20.0878 16.7341 19.8481C16.8711 19.6083 16.7878 19.3029 16.5481 19.1659L16.3 19.6L16.0519 20.0341ZM10.2481 15.5659C10.0083 15.4289 9.70288 15.5122 9.56588 15.7519C9.42887 15.9917 9.51217 16.2971 9.75193 16.4341L10 16L10.2481 15.5659ZM16.5481 19.1659C16.3083 19.0289 16.0029 19.1122 15.8659 19.3519C15.7289 19.5917 15.8122 19.8971 16.0519 20.0341L16.3 19.6L16.5481 19.1659ZM31.4519 28.8341C31.6917 28.9711 31.9971 28.8878 32.1341 28.6481C32.2711 28.4083 32.1878 28.1029 31.9481 27.9659L31.7 28.4L31.4519 28.8341ZM36.7003 27.0023C36.9579 26.9027 37.0859 26.6132 36.9863 26.3557C36.8867 26.0981 36.5972 25.9701 36.3397 26.0697L36.52 26.536L36.7003 27.0023ZM31.5197 27.9337C31.2621 28.0333 31.1341 28.3228 31.2337 28.5803C31.3333 28.8379 31.6228 28.9659 31.8803 28.8663L31.7 28.4L31.5197 27.9337ZM32.1942 28.3239C32.1521 28.051 31.8968 27.8638 31.6239 27.9058C31.351 27.9479 31.1638 28.2032 31.2058 28.4761L31.7 28.4L32.1942 28.3239ZM31.9858 33.5401C32.0279 33.813 32.2832 34.0002 32.5561 33.9582C32.829 33.9161 33.0162 33.6608 32.9742 33.3879L32.48 33.464L31.9858 33.5401ZM31.9481 27.9659C31.7083 27.8289 31.4029 27.9122 31.2659 28.1519C31.1289 28.3917 31.2122 28.6971 31.4519 28.8341L31.7 28.4L31.9481 27.9659ZM37.7519 32.4341C37.9917 32.5711 38.2971 32.4878 38.4341 32.2481C38.5711 32.0083 38.4878 31.7029 38.2481 31.5659L38 32L37.7519 32.4341ZM28.042 12L27.7316 11.608L23.6896 14.808L24 15.2L24.3104 15.592L28.3524 12.392L28.042 12ZM24 15.2L24.3104 14.808L20.2684 11.608L19.958 12L19.6476 12.392L23.6896 15.592L24 15.2ZM24 15.2H24.5V8H24H23.5V15.2H24ZM24 15.2H23.5V32.8H24H24.5V15.2H24ZM19.958 36L20.2684 36.392L24.3104 33.192L24 32.8L23.6896 32.408L19.6476 35.608L19.958 36ZM24 32.8L23.6896 33.192L27.7316 36.392L28.042 36L28.3524 35.608L24.3104 32.408L24 32.8ZM24 32.8H23.5V40H24H24.5V32.8H24ZM11.48 26.536L11.2997 27.0023L16.1197 28.8663L16.3 28.4L16.4803 27.9337L11.6603 26.0697L11.48 26.536ZM16.3 28.4L15.8058 28.3239L15.0258 33.3879L15.52 33.464L16.0142 33.5401L16.7942 28.4761L16.3 28.4ZM16.3 28.4L16.0519 27.9659L9.75193 31.5659L10 32L10.2481 32.4341L16.5481 28.8341L16.3 28.4ZM16.3 28.4L16.5481 28.8341L31.9481 20.0341L31.7 19.6L31.4519 19.1659L16.0519 27.9659L16.3 28.4ZM36.52 21.464L36.7003 20.9977L31.8803 19.1337L31.7 19.6L31.5197 20.0663L36.3397 21.9303L36.52 21.464ZM31.7 19.6L32.1942 19.6761L32.9742 14.6121L32.48 14.536L31.9858 14.4599L31.2058 19.5239L31.7 19.6ZM31.7 19.6L31.9481 20.0341L38.2481 16.4341L38 16L37.7519 15.5659L31.4519 19.1659L31.7 19.6ZM11.48 21.464L11.6603 21.9303L16.4803 20.0663L16.3 19.6L16.1197 19.1337L11.2997 20.9977L11.48 21.464ZM16.3 19.6L16.7942 19.5239L16.0142 14.4599L15.52 14.536L15.0258 14.6121L15.8058 19.6761L16.3 19.6ZM16.3 19.6L16.5481 19.1659L10.2481 15.5659L10 16L9.75193 16.4341L16.0519 20.0341L16.3 19.6ZM16.3 19.6L16.0519 20.0341L31.4519 28.8341L31.7 28.4L31.9481 27.9659L16.5481 19.1659L16.3 19.6ZM36.52 26.536L36.3397 26.0697L31.5197 27.9337L31.7 28.4L31.8803 28.8663L36.7003 27.0023L36.52 26.536ZM31.7 28.4L31.2058 28.4761L31.9858 33.5401L32.48 33.464L32.9742 33.3879L32.1942 28.3239L31.7 28.4ZM31.7 28.4L31.4519 28.8341L37.7519 32.4341L38 32L38.2481 31.5659L31.9481 27.9659L31.7 28.4Z" fill="#D9DBE9"/>
</svg>
