<svg width="195" height="58" viewBox="0 0 195 58" fill="none" xmlns="http://www.w3.org/2000/svg">
<g filter="url(#filter0_d_994_59)">
<rect x="12" y="10" width="171" height="34" rx="17" fill="white"/>
<rect x="12.5" y="10.5" width="170" height="33" rx="16.5" stroke="black" stroke-opacity="0.07"/>
<path d="M39.3333 24L41.6667 21.6667M43 20.3334L41.6667 21.6667L43 20.3334ZM36.5933 26.74C36.9376 27.0797 37.2112 27.4841 37.3985 27.9299C37.5858 28.3757 37.6831 28.8542 37.6847 29.3378C37.6863 29.8214 37.5923 30.3005 37.4079 30.7476C37.2236 31.1947 36.9527 31.6009 36.6108 31.9428C36.2688 32.2847 35.8626 32.5557 35.4155 32.74C34.9685 32.9243 34.4893 33.0183 34.0058 33.0167C33.5222 33.0151 33.0437 32.9178 32.5979 32.7305C32.152 32.5432 31.7476 32.2696 31.408 31.9254C30.7401 31.2338 30.3705 30.3076 30.3789 29.3462C30.3872 28.3848 30.7728 27.4652 31.4527 26.7854C32.1325 26.1055 33.0521 25.7199 34.0135 25.7116C34.9749 25.7032 35.9011 26.0728 36.5927 26.7407L36.5933 26.74ZM36.5933 26.74L39.3333 24L36.5933 26.74ZM39.3333 24L41.3333 26L43.6667 23.6667L41.6667 21.6667L39.3333 24Z" stroke="#68D1C5" stroke-width="2" stroke-linecap="round" stroke-linejoin="round"/>
<path d="M57.1953 25.0291C57.1461 24.5921 56.9429 24.2536 56.5859 24.0135C56.2289 23.7704 55.7796 23.6488 55.2379 23.6488C54.8501 23.6488 54.5147 23.7103 54.2315 23.8335C53.9484 23.9535 53.7283 24.1197 53.5714 24.332C53.4175 24.5413 53.3406 24.7798 53.3406 25.0476C53.3406 25.2723 53.3929 25.4661 53.4975 25.6293C53.6052 25.7924 53.7453 25.9293 53.9176 26.0401C54.093 26.1478 54.2808 26.2386 54.4808 26.3125C54.6809 26.3833 54.8732 26.4418 55.0579 26.4879L55.9812 26.728C56.2828 26.8018 56.5921 26.9019 56.9091 27.0281C57.2261 27.1542 57.52 27.3204 57.7908 27.5266C58.0617 27.7328 58.2802 27.9883 58.4464 28.293C58.6156 28.5977 58.7003 28.9624 58.7003 29.3871C58.7003 29.9226 58.5618 30.3981 58.2848 30.8136C58.0109 31.229 57.6123 31.5568 57.0891 31.7969C56.569 32.0369 55.9396 32.157 55.201 32.157C54.4931 32.157 53.8807 32.0446 53.3636 31.82C52.8466 31.5953 52.4419 31.2768 52.1495 30.8643C51.8571 30.4489 51.6955 29.9564 51.6648 29.3871H53.0959C53.1236 29.7287 53.2344 30.0134 53.4283 30.2411C53.6252 30.4658 53.8761 30.6335 54.1808 30.7443C54.4885 30.852 54.8255 30.9059 55.1918 30.9059C55.5949 30.9059 55.9535 30.8428 56.2674 30.7166C56.5844 30.5874 56.8337 30.4089 57.0153 30.1811C57.1969 29.9503 57.2876 29.681 57.2876 29.3732C57.2876 29.0932 57.2076 28.8639 57.0476 28.6854C56.8906 28.5069 56.6767 28.3591 56.4059 28.2422C56.1381 28.1252 55.835 28.0221 55.4964 27.9329L54.3793 27.6282C53.6222 27.422 53.022 27.1188 52.5788 26.7188C52.1387 26.3187 51.9187 25.7893 51.9187 25.1307C51.9187 24.5859 52.0664 24.1104 52.3619 23.7042C52.6573 23.2979 53.0574 22.9825 53.5621 22.7578C54.0669 22.5301 54.6362 22.4162 55.2702 22.4162C55.9104 22.4162 56.4751 22.5285 56.9645 22.7532C57.4569 22.9779 57.8447 23.2872 58.1278 23.6811C58.411 24.072 58.5587 24.5213 58.571 25.0291H57.1953ZM63.3502 32.1431C62.6516 32.1431 62.0499 31.9938 61.5452 31.6953C61.0435 31.3937 60.6557 30.9705 60.3818 30.4258C60.111 29.878 59.9756 29.2363 59.9756 28.5007C59.9756 27.7744 60.111 27.1342 60.3818 26.5803C60.6557 26.0263 61.0374 25.5939 61.5267 25.283C62.0191 24.9722 62.5947 24.8168 63.2533 24.8168C63.6534 24.8168 64.0412 24.8829 64.4166 25.0153C64.7921 25.1476 65.1291 25.3554 65.4276 25.6385C65.7262 25.9216 65.9616 26.2894 66.134 26.7418C66.3063 27.1912 66.3925 27.7375 66.3925 28.3807V28.87H60.7558V27.8359H65.0399C65.0399 27.4728 64.966 27.1512 64.8183 26.8711C64.6705 26.5879 64.4628 26.3648 64.195 26.2017C63.9304 26.0386 63.6195 25.957 63.2625 25.957C62.8747 25.957 62.5362 26.0524 62.2469 26.2433C61.9607 26.431 61.7391 26.6772 61.5821 26.9819C61.4282 27.2835 61.3513 27.6113 61.3513 27.9652V28.7731C61.3513 29.247 61.4344 29.6502 61.6006 29.9826C61.7699 30.315 62.0053 30.5689 62.3069 30.7443C62.6085 30.9167 62.9609 31.0028 63.3641 31.0028C63.6257 31.0028 63.8642 30.9659 64.0796 30.892C64.2951 30.8151 64.4813 30.7012 64.6382 30.5504C64.7952 30.3996 64.9152 30.2134 64.9983 29.9918L66.3048 30.2273C66.2001 30.612 66.0124 30.949 65.7416 31.2383C65.4738 31.5245 65.1368 31.7476 64.7306 31.9077C64.3274 32.0646 63.8673 32.1431 63.3502 32.1431ZM70.9801 32.1431C70.2815 32.1431 69.6798 31.9938 69.1751 31.6953C68.6734 31.3937 68.2856 30.9705 68.0117 30.4258C67.7409 29.878 67.6055 29.2363 67.6055 28.5007C67.6055 27.7744 67.7409 27.1342 68.0117 26.5803C68.2856 26.0263 68.6673 25.5939 69.1566 25.283C69.649 24.9722 70.2246 24.8168 70.8832 24.8168C71.2833 24.8168 71.671 24.8829 72.0465 25.0153C72.422 25.1476 72.759 25.3554 73.0575 25.6385C73.3561 25.9216 73.5915 26.2894 73.7638 26.7418C73.9362 27.1912 74.0224 27.7375 74.0224 28.3807V28.87H68.3857V27.8359H72.6697C72.6697 27.4728 72.5959 27.1512 72.4482 26.8711C72.3004 26.5879 72.0927 26.3648 71.8249 26.2017C71.5603 26.0386 71.2494 25.957 70.8924 25.957C70.5046 25.957 70.1661 26.0524 69.8768 26.2433C69.5906 26.431 69.369 26.6772 69.212 26.9819C69.0581 27.2835 68.9812 27.6113 68.9812 27.9652V28.7731C68.9812 29.247 69.0643 29.6502 69.2305 29.9826C69.3997 30.315 69.6352 30.5689 69.9368 30.7443C70.2384 30.9167 70.5908 31.0028 70.994 31.0028C71.2556 31.0028 71.4941 30.9659 71.7095 30.892C71.925 30.8151 72.1112 30.7012 72.2681 30.5504C72.4251 30.3996 72.5451 30.2134 72.6282 29.9918L73.9347 30.2273C73.83 30.612 73.6423 30.949 73.3714 31.2383C73.1037 31.5245 72.7667 31.7476 72.3604 31.9077C71.9573 32.0646 71.4972 32.1431 70.9801 32.1431ZM82.369 24.9091V26.017H78.3619V24.9091H82.369ZM79.4606 32V24.0874C79.4606 23.6442 79.5575 23.2764 79.7514 22.984C79.9453 22.6886 80.2023 22.4685 80.5224 22.3239C80.8424 22.1761 81.1902 22.1023 81.5657 22.1023C81.8427 22.1023 82.0797 22.1254 82.2766 22.1715C82.4736 22.2146 82.6198 22.2546 82.7152 22.2915L82.392 23.4087C82.3274 23.3903 82.2443 23.3687 82.1428 23.3441C82.0412 23.3164 81.9181 23.3026 81.7734 23.3026C81.438 23.3026 81.1979 23.3857 81.0533 23.5518C80.9117 23.718 80.8409 23.9581 80.8409 24.272V32H79.4606ZM88.285 29.0593V24.9091H89.6699V32H88.3127V30.772H88.2388C88.0757 31.1506 87.8141 31.466 87.454 31.7184C87.097 31.9677 86.6523 32.0923 86.1199 32.0923C85.6644 32.0923 85.2612 31.9923 84.9103 31.7923C84.5626 31.5891 84.2886 31.2891 84.0886 30.892C83.8916 30.495 83.7931 30.0041 83.7931 29.4194V24.9091H85.1735V29.2532C85.1735 29.7364 85.3074 30.1211 85.5751 30.4073C85.8429 30.6935 86.1906 30.8366 86.6184 30.8366C86.877 30.8366 87.1339 30.772 87.3894 30.6428C87.6479 30.5135 87.8618 30.3181 88.0311 30.0565C88.2034 29.7949 88.2881 29.4625 88.285 29.0593ZM92.9049 22.5455V32H91.5246V22.5455H92.9049ZM96.1422 22.5455V32H94.7619V22.5455H96.1422ZM101.44 32V24.9091H102.82V32H101.44ZM102.137 23.815C101.897 23.815 101.69 23.735 101.518 23.5749C101.349 23.4118 101.264 23.2179 101.264 22.9933C101.264 22.7655 101.349 22.5716 101.518 22.4116C101.69 22.2485 101.897 22.1669 102.137 22.1669C102.377 22.1669 102.581 22.2485 102.751 22.4116C102.923 22.5716 103.009 22.7655 103.009 22.9933C103.009 23.2179 102.923 23.4118 102.751 23.5749C102.581 23.735 102.377 23.815 102.137 23.815ZM106.057 27.7898V32H104.677V24.9091H106.002V26.0632H106.09C106.253 25.6877 106.508 25.3861 106.856 25.1584C107.207 24.9306 107.648 24.8168 108.181 24.8168C108.664 24.8168 109.087 24.9183 109.45 25.1214C109.814 25.3215 110.095 25.62 110.295 26.017C110.495 26.4141 110.595 26.9049 110.595 27.4897V32H109.215V27.6559C109.215 27.1419 109.081 26.7403 108.813 26.451C108.546 26.1586 108.178 26.0124 107.71 26.0124C107.39 26.0124 107.105 26.0817 106.856 26.2202C106.61 26.3587 106.414 26.5618 106.27 26.8295C106.128 27.0942 106.057 27.4143 106.057 27.7898ZM115.821 24.9091V26.017H111.814V24.9091H115.821ZM112.913 32V24.0874C112.913 23.6442 113.01 23.2764 113.204 22.984C113.397 22.6886 113.654 22.4685 113.975 22.3239C114.295 22.1761 114.642 22.1023 115.018 22.1023C115.295 22.1023 115.532 22.1254 115.729 22.1715C115.926 22.2146 116.072 22.2546 116.167 22.2915L115.844 23.4087C115.78 23.3903 115.696 23.3687 115.595 23.3441C115.493 23.3164 115.37 23.3026 115.226 23.3026C114.89 23.3026 114.65 23.3857 114.505 23.5518C114.364 23.718 114.293 23.9581 114.293 24.272V32H112.913ZM119.953 32.1431C119.288 32.1431 118.708 31.9908 118.212 31.6861C117.717 31.3814 117.332 30.9551 117.058 30.4073C116.784 29.8595 116.647 29.2193 116.647 28.4869C116.647 27.7513 116.784 27.1081 117.058 26.5572C117.332 26.0063 117.717 25.5785 118.212 25.2738C118.708 24.9691 119.288 24.8168 119.953 24.8168C120.618 24.8168 121.198 24.9691 121.693 25.2738C122.189 25.5785 122.573 26.0063 122.847 26.5572C123.121 27.1081 123.258 27.7513 123.258 28.4869C123.258 29.2193 123.121 29.8595 122.847 30.4073C122.573 30.9551 122.189 31.3814 121.693 31.6861C121.198 31.9908 120.618 32.1431 119.953 32.1431ZM119.957 30.9844C120.388 30.9844 120.745 30.8705 121.028 30.6428C121.312 30.415 121.521 30.1119 121.656 29.7333C121.795 29.3548 121.864 28.9377 121.864 28.4822C121.864 28.0298 121.795 27.6143 121.656 27.2358C121.521 26.8542 121.312 26.5479 121.028 26.3171C120.745 26.0863 120.388 25.9709 119.957 25.9709C119.524 25.9709 119.163 26.0863 118.877 26.3171C118.594 26.5479 118.383 26.8542 118.245 27.2358C118.109 27.6143 118.042 28.0298 118.042 28.4822C118.042 28.9377 118.109 29.3548 118.245 29.7333C118.383 30.1119 118.594 30.415 118.877 30.6428C119.163 30.8705 119.524 30.9844 119.957 30.9844ZM128.239 32V24.9091H129.62V32H128.239ZM128.937 23.815C128.696 23.815 128.49 23.735 128.318 23.5749C128.149 23.4118 128.064 23.2179 128.064 22.9933C128.064 22.7655 128.149 22.5716 128.318 22.4116C128.49 22.2485 128.696 22.1669 128.937 22.1669C129.177 22.1669 129.381 22.2485 129.551 22.4116C129.723 22.5716 129.809 22.7655 129.809 22.9933C129.809 23.2179 129.723 23.4118 129.551 23.5749C129.381 23.735 129.177 23.815 128.937 23.815ZM132.857 27.7898V32H131.477V24.9091H132.802V26.0632H132.889C133.052 25.6877 133.308 25.3861 133.656 25.1584C134.007 24.9306 134.448 24.8168 134.981 24.8168C135.464 24.8168 135.887 24.9183 136.25 25.1214C136.613 25.3215 136.895 25.62 137.095 26.017C137.295 26.4141 137.395 26.9049 137.395 27.4897V32H136.015V27.6559C136.015 27.1419 135.881 26.7403 135.613 26.451C135.345 26.1586 134.978 26.0124 134.51 26.0124C134.19 26.0124 133.905 26.0817 133.656 26.2202C133.41 26.3587 133.214 26.5618 133.069 26.8295C132.928 27.0942 132.857 27.4143 132.857 27.7898ZM144.75 32.157C144.301 32.157 143.895 32.0739 143.532 31.9077C143.168 31.7384 142.881 31.4937 142.668 31.1737C142.459 30.8536 142.354 30.4612 142.354 29.9964C142.354 29.5964 142.431 29.267 142.585 29.0085C142.739 28.75 142.947 28.5453 143.208 28.3945C143.47 28.2437 143.762 28.1299 144.085 28.0529C144.409 27.976 144.738 27.9175 145.073 27.8775C145.498 27.8282 145.843 27.7882 146.108 27.7575C146.372 27.7236 146.565 27.6697 146.685 27.5959C146.805 27.522 146.865 27.402 146.865 27.2358V27.2035C146.865 26.8003 146.751 26.4879 146.523 26.2663C146.298 26.0447 145.963 25.9339 145.517 25.9339C145.052 25.9339 144.686 26.037 144.418 26.2433C144.153 26.4464 143.97 26.6726 143.869 26.9219L142.571 26.6264C142.725 26.1955 142.95 25.8478 143.245 25.5831C143.544 25.3153 143.887 25.1214 144.275 25.0014C144.663 24.8783 145.07 24.8168 145.498 24.8168C145.781 24.8168 146.081 24.8506 146.398 24.9183C146.718 24.983 147.017 25.103 147.294 25.2784C147.574 25.4538 147.803 25.7047 147.982 26.0309C148.16 26.354 148.25 26.7741 148.25 27.2912V32H146.902V31.0305H146.846C146.757 31.209 146.623 31.3845 146.445 31.5568C146.266 31.7292 146.037 31.8723 145.757 31.9862C145.477 32.1 145.141 32.157 144.75 32.157ZM145.05 31.049C145.432 31.049 145.758 30.9736 146.029 30.8228C146.303 30.672 146.511 30.475 146.652 30.2319C146.797 29.9857 146.869 29.7225 146.869 29.4425V28.5284C146.82 28.5777 146.725 28.6238 146.583 28.6669C146.445 28.7069 146.286 28.7423 146.108 28.7731C145.929 28.8008 145.755 28.8269 145.586 28.8516C145.417 28.8731 145.275 28.8916 145.161 28.907C144.893 28.9408 144.649 28.9978 144.427 29.0778C144.209 29.1578 144.033 29.2732 143.901 29.424C143.772 29.5717 143.707 29.7687 143.707 30.0149C143.707 30.3565 143.833 30.6151 144.085 30.7905C144.338 30.9628 144.659 31.049 145.05 31.049ZM150.088 34.6591V24.9091H151.436V26.0586H151.551C151.632 25.9109 151.747 25.7401 151.898 25.5462C152.049 25.3523 152.258 25.183 152.526 25.0384C152.793 24.8906 153.147 24.8168 153.587 24.8168C154.16 24.8168 154.671 24.9614 155.12 25.2507C155.569 25.54 155.922 25.957 156.177 26.5018C156.436 27.0465 156.565 27.7021 156.565 28.4684C156.565 29.2347 156.437 29.8918 156.182 30.4396C155.926 30.9844 155.576 31.4045 155.129 31.6999C154.683 31.9923 154.174 32.1385 153.601 32.1385C153.17 32.1385 152.818 32.0662 152.544 31.9215C152.273 31.7769 152.061 31.6076 151.907 31.4137C151.753 31.2198 151.635 31.0475 151.551 30.8967H151.468V34.6591H150.088ZM151.441 28.4545C151.441 28.9531 151.513 29.3902 151.658 29.7656C151.802 30.1411 152.012 30.435 152.286 30.6474C152.559 30.8567 152.895 30.9613 153.292 30.9613C153.704 30.9613 154.049 30.852 154.326 30.6335C154.603 30.4119 154.812 30.1119 154.954 29.7333C155.098 29.3548 155.171 28.9285 155.171 28.4545C155.171 27.9867 155.1 27.5666 154.958 27.1942C154.82 26.8219 154.611 26.5279 154.331 26.3125C154.054 26.0971 153.707 25.9893 153.292 25.9893C152.892 25.9893 152.553 26.0924 152.276 26.2987C152.002 26.5049 151.795 26.7926 151.653 27.1619C151.511 27.5312 151.441 27.9621 151.441 28.4545ZM158.112 34.6591V24.9091H159.46V26.0586H159.575C159.655 25.9109 159.77 25.7401 159.921 25.5462C160.072 25.3523 160.281 25.183 160.549 25.0384C160.817 24.8906 161.171 24.8168 161.611 24.8168C162.183 24.8168 162.694 24.9614 163.143 25.2507C163.593 25.54 163.945 25.957 164.201 26.5018C164.459 27.0465 164.588 27.7021 164.588 28.4684C164.588 29.2347 164.461 29.8918 164.205 30.4396C163.95 30.9844 163.599 31.4045 163.153 31.6999C162.706 31.9923 162.197 32.1385 161.625 32.1385C161.194 32.1385 160.841 32.0662 160.567 31.9215C160.297 31.7769 160.084 31.6076 159.93 31.4137C159.777 31.2198 159.658 31.0475 159.575 30.8967H159.492V34.6591H158.112ZM159.464 28.4545C159.464 28.9531 159.536 29.3902 159.681 29.7656C159.826 30.1411 160.035 30.435 160.309 30.6474C160.583 30.8567 160.918 30.9613 161.315 30.9613C161.728 30.9613 162.072 30.852 162.349 30.6335C162.626 30.4119 162.836 30.1119 162.977 29.7333C163.122 29.3548 163.194 28.9285 163.194 28.4545C163.194 27.9867 163.123 27.5666 162.982 27.1942C162.843 26.8219 162.634 26.5279 162.354 26.3125C162.077 26.0971 161.731 25.9893 161.315 25.9893C160.915 25.9893 160.577 26.0924 160.3 26.2987C160.026 26.5049 159.818 26.7926 159.676 27.1619C159.535 27.5312 159.464 27.9621 159.464 28.4545Z" fill="#888888"/>
</g>
<defs>
<filter id="filter0_d_994_59" x="0" y="0" width="195" height="58" filterUnits="userSpaceOnUse" color-interpolation-filters="sRGB">
<feFlood flood-opacity="0" result="BackgroundImageFix"/>
<feColorMatrix in="SourceAlpha" type="matrix" values="0 0 0 0 0 0 0 0 0 0 0 0 0 0 0 0 0 0 127 0" result="hardAlpha"/>
<feOffset dy="2"/>
<feGaussianBlur stdDeviation="6"/>
<feColorMatrix type="matrix" values="0 0 0 0 0 0 0 0 0 0 0 0 0 0 0 0 0 0 0.09 0"/>
<feBlend mode="normal" in2="BackgroundImageFix" result="effect1_dropShadow_994_59"/>
<feBlend mode="normal" in="SourceGraphic" in2="effect1_dropShadow_994_59" result="shape"/>
</filter>
</defs>
</svg>
